<svg xmlns="http://www.w3.org/2000/svg" version="1.1" xmlns:xlink="http://www.w3.org/1999/xlink" width="512" height="512" x="0" y="0" viewBox="0 0 682.667 682.667" style="enable-background:new 0 0 512 512" xml:space="preserve" class=""><g><defs><clipPath id="a" clipPathUnits="userSpaceOnUse"><path d="M0 512h512V0H0Z" fill="#000000" opacity="1" data-original="#000000"></path></clipPath></defs><g clip-path="url(#a)" transform="matrix(1.33333 0 0 -1.33333 0 682.667)"><path d="M0 0h61.115v-28.113c0-6.752-5.527-12.256-12.245-12.256h-198.983c0 17.674 0 26.667 13.521 26.667l26.929.028C-92.712-13.646-81.6-9.305-75.392 0Z" style="fill-opacity:1;fill-rule:evenodd;stroke:none" transform="translate(378.33 219.403)" fill="#6f6571" data-original="#6f6571"></path><path d="M0 0h174.983c10.261-17.872 18.51-39.348 11.396-80.427-11.906 40.512-132.832 24.341-145.248-22.411H-92.296c-5.046 11.433-9.808 22.724-13.975 34.128h37.616C7.427-40-17.036-52.795 0 0" style="fill-opacity:1;fill-rule:evenodd;stroke:none" transform="translate(252.216 179.034)" fill="#ffe07d" data-original="#ffe07d"></path><path d="M0 0c2.608-13.73 6.151-27.263 10.12-38.78l38.464-15.072 42.89 15.072C89.972 42.384 59.641 81.307 33.846 93.902c-9.298 7.079-18.822 9.746-18.822 9.746S2.495 83.604 1.843 83.604C-2.976 72.143-4.791 57.192-4.479 41.05Z" style="fill-opacity:1;fill-rule:evenodd;stroke:none" transform="translate(241.416 288.852)" fill="#eceaec" data-original="#eceaec"></path><path d="M0 0h-81.354c-18.737-2.043-41.783-16.312-41.783-60.512v-46.327h42.463v35.802c0 17.674 0 26.667 13.522 26.667l26.928.028c16.952.029 28.064 4.369 34.272 13.674C-1.162-23.49.681-13.362 0 0" style="fill-opacity:1;fill-rule:evenodd;stroke:none" transform="translate(332.89 250.071)" fill="#ff8086" data-original="#ff8086"></path><path d="M0 0c-1.502 81.164-31.833 120.087-57.628 132.683a52.046 52.046 0 0 0-12.756-6.554C-47.537 108.853-24.633 70.242-23.329 0Z" style="fill-opacity:1;fill-rule:evenodd;stroke:none" transform="translate(332.89 250.071)" fill="#dad8db" data-original="#dad8db"></path><path d="M0 0h-23.329c.681-13.362-1.162-23.49-5.952-30.668-3.912-5.872-9.809-10.837-17.887-13.674h6.944c16.952.029 28.064 4.369 34.272 13.674C-1.162-23.49.681-13.362 0 0" style="fill-opacity:1;fill-rule:evenodd;stroke:none" transform="translate(332.89 250.071)" fill="#f76672" data-original="#f76672"></path><path d="M0 0c2.608-13.73 6.151-27.263 10.12-38.78h81.354C89.972 42.384 59.641 81.307 33.846 93.902M1.843 83.604C-2.976 72.143-4.791 57.192-4.479 41.05" style="stroke-width:15;stroke-linecap:round;stroke-linejoin:round;stroke-miterlimit:10;stroke-dasharray:none;stroke-opacity:1" transform="translate(241.416 288.852)" fill="none" stroke="#000000" stroke-width="15" stroke-linecap="round" stroke-linejoin="round" stroke-miterlimit="10" stroke-dasharray="none" stroke-opacity="" data-original="#000000"></path><path d="M0 0h126.171v-43.831c0-10.837-8.844-19.689-19.673-19.689H61.115l-27.07-13.673L0-63.52Z" style="fill-opacity:1;fill-rule:evenodd;stroke:none" transform="translate(378.33 282.923)" fill="#ffe07d" data-original="#ffe07d"></path><path d="M0 0h86.825c10.829 0 19.673-8.852 19.673-19.688v-32.568H-19.673v32.568C-19.673-8.852-10.828 0 0 0" style="fill-opacity:1;fill-rule:evenodd;stroke:none" transform="translate(398.002 346.526)" fill="#ffe07d" data-original="#ffe07d"></path><path d="M378.329 304.086H504.5v-30.951H378.329Z" style="fill-opacity:1;fill-rule:evenodd;stroke:none" fill="#ff8086" data-original="#ff8086"></path><path d="M0 0h26.334v22.752c0 7.404-4.139 13.873-10.177 17.22-2.834 1.56-6.065 2.468-9.496 2.468h-26.334C-8.844 42.44 0 33.589 0 22.752Z" style="fill-opacity:1;fill-rule:evenodd;stroke:none" transform="translate(478.166 304.086)" fill="#ffc269" data-original="#ffc269"></path><path d="M0 0h26.334v30.951H0V9.788Z" style="fill-opacity:1;fill-rule:evenodd;stroke:none" transform="translate(478.166 273.135)" fill="#f76672" data-original="#f76672"></path><path d="M0 0v-34.043C0-44.88-8.844-53.731-19.673-53.731H6.661c3.431 0 6.662.879 9.496 2.44 6.038 3.376 10.177 9.844 10.177 17.248V0H16.157Z" style="fill-opacity:1;fill-rule:evenodd;stroke:none" transform="translate(478.166 273.135)" fill="#ffc269" data-original="#ffc269"></path><path d="M0 0h106.498c10.829 0 19.673 8.852 19.673 19.688v87.747c0 10.836-8.844 19.688-19.673 19.688H19.673C8.845 127.123 0 118.271 0 107.435Z" style="stroke-width:15;stroke-linecap:round;stroke-linejoin:round;stroke-miterlimit:10;stroke-dasharray:none;stroke-opacity:1" transform="translate(378.33 219.403)" fill="none" stroke="#000000" stroke-width="15" stroke-linecap="round" stroke-linejoin="round" stroke-miterlimit="10" stroke-dasharray="none" stroke-opacity="" data-original="#000000"></path><path d="M378.329 273.135H504.5v30.951H378.329Z" style="stroke-width:15;stroke-linecap:round;stroke-linejoin:round;stroke-miterlimit:10;stroke-dasharray:none;stroke-opacity:1" fill="none" stroke="#000000" stroke-width="15" stroke-linecap="round" stroke-linejoin="round" stroke-miterlimit="10" stroke-dasharray="none" stroke-opacity="" data-original="#000000"></path><path d="M0 0c0 41.958 33.25 75.377 74.268 75.377 33.364 0 61.597-22.128 70.98-52.966a76.141 76.141 0 0 0 3.26-20.028C148.593-.341 146.722 0 144.171 0 96.123 0 48.047.028 0 0" style="fill-opacity:1;fill-rule:evenodd;stroke:none" transform="translate(293.347 76.196)" fill="#ff8086" data-original="#ff8086"></path><path d="M0 0h113.046C111.43-30.469 86.74-54.696 56.522-54.696 26.306-54.696 1.615-30.469 0 0" style="fill-opacity:1;fill-rule:evenodd;stroke:none" transform="translate(312.027 76.196)" fill="#6f6571" data-original="#6f6571"></path><path d="m0 0 97.257-22.384c-6.179-26.865-32.967-43.66-59.811-37.475C10.573-53.675-6.18-26.866 0 0" style="fill-opacity:1;fill-rule:evenodd;stroke:none" transform="translate(24.961 88.253)" fill="#6f6571" data-original="#6f6571"></path><path d="M0 0c13.748 20 37.616 31.604 62.561 29.106 43.994-9.304 58.309-35.602 61.172-68.397a67.826 67.826 0 0 0-1.503-13.419c-.283-1.248-1.105-.737-2.466-.426l-15.222 3.49L7.285-27.263 0-25.589l-10.176 2.355A67.335 67.335 0 0 0 0 0" style="fill-opacity:1;fill-rule:evenodd;stroke:none" transform="translate(17.676 115.516)" fill="#eceaec" data-original="#eceaec"></path><path d="m0 0 39.288 135.945 17.689 7.915 19.785-7.915C50.769 63.887 58.025 13.589 75.572-34.412c4.195-11.404 8.957-22.695 13.974-34.128H61.285Z" style="fill-opacity:1;fill-rule:evenodd;stroke:none" transform="translate(80.152 144.736)" fill="#ff8086" data-original="#ff8086"></path><path d="m0 0 46.092 9.815C50.769 9.39 64.148-1.845 64.148-8.88L54.34-58.753a45.017 45.017 0 0 0-12.897-1.9c-24.548 0-44.447 19.943-44.447 44.51C-3.004-10.44-1.956-4.993 0 0" style="fill-opacity:1;fill-rule:evenodd;stroke:none" transform="translate(201.815 433.11)" fill="#ffece4" data-original="#ffece4"></path><path d="M0 0c0 31.717 25.115 57.391 56.126 57.391 31.012 0 56.126-25.674 56.126-57.391 0-20.937-8.504-39.547-23.924-50.355-5.499-3.887-11.906-6.752-19.106-8.398V-8.88c0 7.035-3.571 8.454-8.248 8.88H14.882Z" style="fill-opacity:1;fill-rule:evenodd;stroke:none" transform="translate(186.934 433.11)" fill="#ff8086" data-original="#ff8086"></path><path d="M0 0c8.532 5.391 18.595 8.482 29.367 8.482 31.011 0 56.126-25.673 56.126-57.39 0-20.937-8.504-39.547-23.924-50.356a52.058 52.058 0 0 0-13.012-6.638c11.396 11.546 17.575 28.114 17.575 46.383C66.132-26.384 39.855.482 7.455.482 4.932.482 2.438.341 0 0" style="fill-opacity:1;fill-rule:evenodd;stroke:none" transform="translate(213.693 482.018)" fill="#f76672" data-original="#f76672"></path><path d="M0 0h42.463v-26.752c0-5.73-3.118-6.156-7.71-6.156h-60.945C-27.411-6.071-11.168 0 0 0" style="fill-opacity:1;fill-rule:evenodd;stroke:none" transform="translate(209.752 143.232)" fill="#6f6571" data-original="#6f6571"></path><path d="M0 0c-17.546 48.001-24.803 98.299 1.19 170.357h-19.984C-44.788 98.299-37.559 48.001-19.984 0c4.167-11.404 8.929-22.695 13.975-34.128h19.984C8.958-22.695 4.195-11.404 0 0" style="fill-opacity:1;fill-rule:evenodd;stroke:none" transform="translate(155.724 110.324)" fill="#f76672" data-original="#f76672"></path><path d="m0 0-61.172 68.397c-6.321.624-12.586.37-18.623-.737l58.79-65.731a67.669 67.669 0 0 0-1.162-11.603l2.976-.681 15.222-3.49c1.361-.311 2.183-.822 2.467.426A67.899 67.899 0 0 1 0 0" style="fill-opacity:1;fill-rule:evenodd;stroke:none" transform="translate(141.41 76.225)" fill="#dad8db" data-original="#dad8db"></path><path d="M0 0h-174.983v-15.404H-31.21c11.707 0 17.264-5.05 21.827-15.291 3.941-8.88 4.026-11.774 5.811-22.497a75.203 75.203 0 0 0 14.968-27.235C18.51-39.348 10.261-17.872 0 0" style="fill-opacity:1;fill-rule:evenodd;stroke:none" transform="translate(427.2 179.034)" fill="#ffc269" data-original="#ffc269"></path><path d="M0 0c-13.606 15.802-33.647 25.731-56.013 25.731a75.08 75.08 0 0 1-16.299-1.788c33.478-7.574 56.892-37.134 57.913-71.206.056-1.873-.794-2.298-2.155-2.383h30.445c2.55 0 4.421-.34 4.337 2.383a76.19 76.19 0 0 1-3.26 20.029c-.058.198-.114.369-.171.539v.028C11.679-16.709 6.605-7.659 0 0" style="fill-opacity:1;fill-rule:evenodd;stroke:none" transform="translate(423.627 125.842)" fill="#f76672" data-original="#f76672"></path><path d="m0 0-94.281 21.702c-1.049-4.454-1.417-8.936-1.247-13.306l74.835-17.219 2.948-.681c-2.778-12.199-9.836-22.327-19.219-29.164C-17.83-35.292-1.644-20.823 2.976-.682z" style="fill-opacity:1;fill-rule:evenodd;stroke:none" transform="translate(119.242 66.55)" fill="#5d5360" data-original="#5d5360"></path><path d="M0 0h-95.046a58.682 58.682 0 0 1 3.486-17.051h84.218c-.709-13.333-5.811-25.446-13.861-34.893C.651-44.767 16.725-24.369 18 0Z" style="fill-opacity:1;fill-rule:evenodd;stroke:none" transform="translate(407.073 76.196)" fill="#5d5360" data-original="#5d5360"></path><path d="M0 0v28.113h-38.409V0c0-6.752-5.528-12.256-12.246-12.256h38.41C-5.527-12.256 0-6.752 0 0" style="fill-opacity:1;fill-rule:evenodd;stroke:none" transform="translate(439.444 191.29)" fill="#5d5360" data-original="#5d5360"></path><path d="M0 0h37.871c4.677-.426 8.249-1.873 8.249-8.908v-40.313c3.798.17 7.484.794 10.998 1.844V2.496c0 7.035-3.571 8.454-8.248 8.88H2.778A44.54 44.54 0 0 1 0 0" style="fill-opacity:1;fill-rule:evenodd;stroke:none" transform="translate(199.038 421.733)" fill="#ffddce" data-original="#ffddce"></path><path d="M0 0c-31.011 0-56.126-25.674-56.126-57.391H4.848c4.677-.425 8.248-1.844 8.248-8.88v-49.873c27.383 6.242 43.03 30.327 43.03 58.753C56.126-25.674 31.012 0 0 0Z" style="stroke-width:15;stroke-linecap:round;stroke-linejoin:round;stroke-miterlimit:10;stroke-dasharray:none;stroke-opacity:1" transform="translate(243.06 490.5)" fill="none" stroke="#000000" stroke-width="15" stroke-linecap="round" stroke-linejoin="round" stroke-miterlimit="10" stroke-dasharray="none" stroke-opacity="" data-original="#000000"></path><path d="M0 0c-1.956-4.993-3.004-10.44-3.004-16.143 0-24.567 19.899-44.51 44.447-44.51 4.478 0 8.816.68 12.897 1.9" style="stroke-width:15;stroke-linecap:round;stroke-linejoin:round;stroke-miterlimit:10;stroke-dasharray:none;stroke-opacity:1" transform="translate(201.815 433.11)" fill="none" stroke="#000000" stroke-width="15" stroke-linecap="round" stroke-linejoin="round" stroke-miterlimit="10" stroke-dasharray="none" stroke-opacity="" data-original="#000000"></path><path d="m0 0 53.036-17.532c2.608-2.326-.34-26.043-2.098-25.277H-10.715v39.036C-10.715 3.915-6.718 2.213 0 0" style="fill-opacity:1;fill-rule:evenodd;stroke:none" transform="translate(111.249 323.49)" fill="#ffe07d" data-original="#ffe07d"></path><path d="M0 0h-26.816c-14.4 0-14.825 23.887 2.098 25.276L0 27.263 6.633 13.22Z" style="fill-opacity:1;fill-rule:evenodd;stroke:none" transform="translate(189.003 280.682)" fill="#ffece4" data-original="#ffece4"></path><path d="m0 0 8.873 7.632C31.096 26.781 59.188-5.531 29.48-24.822L4.479-41.05l-12.586-8.17h-39.827v27.263l24.747 2.014z" style="fill-opacity:1;fill-rule:evenodd;stroke:none" transform="translate(236.937 329.901)" fill="#ff8086" data-original="#ff8086"></path><path d="M0 0v13.22H-35.008c-.85 0-1.644.056-2.409.226C-38.239 6.865-34.526 0-26.816 0H-4.45Z" style="fill-opacity:1;fill-rule:evenodd;stroke:none" transform="translate(189.003 280.682)" fill="#ffddce" data-original="#ffddce"></path><path d="M0 0c17.972 11.688 14.797 28.113 4.564 35.035.822-7.092-2.551-15.233-12.755-21.844L-27.666.567l-5.499-3.603-12.586-8.142h-31.663v-13.219h39.827l12.586 8.169z" style="fill-opacity:1;fill-rule:evenodd;stroke:none" transform="translate(266.417 305.08)" fill="#f76672" data-original="#f76672"></path><path d="m0 0-21.345 7.036c-7.143-7.66-10.601-22.582-6.009-32.312h25.256c-7.71 0-11.423 6.865-10.601 13.446C-11.962-6.128-7.852-.652 0 0" style="fill-opacity:1;fill-rule:evenodd;stroke:none" transform="translate(164.285 305.958)" fill="#ffc269" data-original="#ffc269"></path><path d="m0 0-32.06-27.575-24.662-1.986-24.803-2.014c-16.923-1.39-16.497-25.277-2.098-25.277h66.644l37.586 24.398C50.315-13.163 22.224 19.149 0 0Z" style="stroke-width:15;stroke-linecap:round;stroke-linejoin:round;stroke-miterlimit:10;stroke-dasharray:none;stroke-opacity:1" transform="translate(245.81 337.533)" fill="none" stroke="#000000" stroke-width="15" stroke-linecap="round" stroke-linejoin="round" stroke-miterlimit="10" stroke-dasharray="none" stroke-opacity="" data-original="#000000"></path><path d="M0 0h-61.654v39.035c0 7.689 3.997 5.986 10.716 3.774L2.098 25.276C-14.825 23.887-14.4 0 0 0Z" style="stroke-width:15;stroke-linecap:round;stroke-linejoin:round;stroke-miterlimit:10;stroke-dasharray:none;stroke-opacity:1" transform="translate(162.187 280.682)" fill="none" stroke="#000000" stroke-width="15" stroke-linecap="round" stroke-linejoin="round" stroke-miterlimit="10" stroke-dasharray="none" stroke-opacity="" data-original="#000000"></path><path d="M0 0v27.291" style="stroke-width:15;stroke-linecap:round;stroke-linejoin:round;stroke-miterlimit:10;stroke-dasharray:none;stroke-opacity:1" transform="translate(189.088 280.682)" fill="none" stroke="#000000" stroke-width="15" stroke-linecap="round" stroke-linejoin="round" stroke-miterlimit="10" stroke-dasharray="none" stroke-opacity="" data-original="#000000"></path><path d="M0 0h74.665C81.383 0 86.91 5.504 86.91 12.256v28.113H-25.597M-100.318 0h66.699" style="stroke-width:15;stroke-linecap:round;stroke-linejoin:round;stroke-miterlimit:10;stroke-dasharray:none;stroke-opacity:1" transform="translate(352.534 179.034)" fill="none" stroke="#000000" stroke-width="15" stroke-linecap="round" stroke-linejoin="round" stroke-miterlimit="10" stroke-dasharray="none" stroke-opacity="" data-original="#000000"></path><path d="M0 0c-26.873 6.185-43.625 32.993-37.446 59.859l97.257-22.383C53.632 10.61 26.844-6.185 0 0Z" style="stroke-width:15;stroke-linecap:round;stroke-linejoin:round;stroke-miterlimit:10;stroke-dasharray:none;stroke-opacity:1" transform="translate(62.407 28.394)" fill="none" stroke="#000000" stroke-width="15" stroke-linecap="round" stroke-linejoin="round" stroke-miterlimit="10" stroke-dasharray="none" stroke-opacity="" data-original="#000000"></path><path d="m0 0 16.469 56.909h37.474C21.77-32.284 40.536-88.144 66.728-147.576H38.466m-60.803 69.617 12.671 43.774" style="stroke-width:15;stroke-linecap:round;stroke-linejoin:round;stroke-miterlimit:10;stroke-dasharray:none;stroke-opacity:1" transform="translate(102.971 223.773)" fill="none" stroke="#000000" stroke-width="15" stroke-linecap="round" stroke-linejoin="round" stroke-miterlimit="10" stroke-dasharray="none" stroke-opacity="" data-original="#000000"></path><path d="M0 0c-33.478 3.348-64.999-18.667-72.737-52.341l129.94-29.901c1.361-.312 2.183-.822 2.466.426a67.818 67.818 0 0 1 1.503 13.419z" style="stroke-width:15;stroke-linecap:round;stroke-linejoin:round;stroke-miterlimit:10;stroke-dasharray:none;stroke-opacity:1" transform="translate(80.237 144.622)" fill="none" stroke="#000000" stroke-width="15" stroke-linecap="round" stroke-linejoin="round" stroke-miterlimit="10" stroke-dasharray="none" stroke-opacity="" data-original="#000000"></path><path d="m0 0-123.648.028m257.501 102.81c10.26-17.872 18.509-39.348 11.395-80.427" style="stroke-width:15;stroke-linecap:round;stroke-linejoin:round;stroke-miterlimit:10;stroke-dasharray:none;stroke-opacity:1" transform="translate(293.347 76.196)" fill="none" stroke="#000000" stroke-width="15" stroke-linecap="round" stroke-linejoin="round" stroke-miterlimit="10" stroke-dasharray="none" stroke-opacity="" data-original="#000000"></path><path d="M0 0c-41.018 0-74.268-33.419-74.268-75.377H69.903c2.551 0 4.422-.341 4.337 2.383C73.021-32.171 40.252 0 0 0Z" style="stroke-width:15;stroke-linecap:round;stroke-linejoin:round;stroke-miterlimit:10;stroke-dasharray:none;stroke-opacity:1" transform="translate(367.614 151.573)" fill="none" stroke="#000000" stroke-width="15" stroke-linecap="round" stroke-linejoin="round" stroke-miterlimit="10" stroke-dasharray="none" stroke-opacity="" data-original="#000000"></path><path d="M0 0c1.615-30.469 26.306-54.696 56.522-54.696 30.218 0 54.908 24.227 56.524 54.696z" style="stroke-width:15;stroke-linecap:round;stroke-linejoin:round;stroke-miterlimit:10;stroke-dasharray:none;stroke-opacity:1" transform="translate(312.027 76.196)" fill="none" stroke="#000000" stroke-width="15" stroke-linecap="round" stroke-linejoin="round" stroke-miterlimit="10" stroke-dasharray="none" stroke-opacity="" data-original="#000000"></path><path d="M0 0h-27.836" style="stroke-width:15;stroke-linecap:round;stroke-linejoin:round;stroke-miterlimit:10;stroke-dasharray:none;stroke-opacity:1" transform="translate(183.56 110.324)" fill="none" stroke="#000000" stroke-width="15" stroke-linecap="round" stroke-linejoin="round" stroke-miterlimit="10" stroke-dasharray="none" stroke-opacity="" data-original="#000000"></path><path d="M0 0v46.327c0 44.199 23.046 58.469 41.783 60.512h81.354c1.56-30.668-10.204-44.314-40.223-44.342l-26.929-.028c-13.522 0-13.522-8.993-13.522-26.667V0" style="stroke-width:15;stroke-linecap:round;stroke-linejoin:round;stroke-miterlimit:10;stroke-dasharray:none;stroke-opacity:1" transform="translate(209.752 143.232)" fill="none" stroke="#000000" stroke-width="15" stroke-linecap="round" stroke-linejoin="round" stroke-miterlimit="10" stroke-dasharray="none" stroke-opacity="" data-original="#000000"></path><path d="M0 0c-1.219 26.837 15.023 32.908 26.192 32.908h42.463V6.156C68.655.426 65.537 0 60.945 0Z" style="stroke-width:15;stroke-linecap:round;stroke-linejoin:round;stroke-miterlimit:10;stroke-dasharray:none;stroke-opacity:1" transform="translate(183.56 110.324)" fill="none" stroke="#000000" stroke-width="15" stroke-linecap="round" stroke-linejoin="round" stroke-miterlimit="10" stroke-dasharray="none" stroke-opacity="" data-original="#000000"></path></g></g></svg>