<svg id="Layer_1" data-name="Layer 1" xmlns="http://www.w3.org/2000/svg" viewBox="0 0 2009.46 1449.77"><defs><style>.cls-1{fill:#fefefe;}</style></defs><path class="cls-1" d="M472.91,1.29c38.37-2.22,81.26-3.27,114.91,13,43,20.77,60.72,58.49,66,94.94,3.65,25.1.52,51.14-3.51,76.14L627.48,287.82,557.3,522.19,541.52,583c-2.93,13.94-6.35,31-1.65,44.89,2.14,6.33,7.67,14.6,16.41,17.09,5,1.41,13.13.61,18-.67,18.48-4.85,35.11-26.91,44.17-39.11,33.47-45.11,57.82-95.79,82.19-144L786.8,294.51c26.79-49,55.5-98.23,89.83-144.57C917.79,94.39,977.18,21.19,1063.85,3.19c25.8-5.36,56.76-4.36,80.06,6,57.11,25.45,66.54,91.63,67.28,136.51,1.08,64.51-17.41,131.21-33.93,194.25L1076.85,679.32l-23.49,93.35c-5.27,26.84-10.84,54.39-.46,81A34.46,34.46,0,0,0,1073.44,874a35.92,35.92,0,0,0,21.62,1.3c24.34-6.45,43.37-36.14,54-52.07,40.28-60.18,68.42-126.65,97.32-190.29L1361,384.35c33.29-68.47,69-136.73,111.91-202.17,38.46-58.68,106.41-156,193.64-177.56,27.45-6.78,58.88-6.29,84.82,3.78C1830,39,1836.18,132.48,1830.71,190c-6,63.3-25.31,127.22-43.56,189.09-26.36,89.38-55.23,179-70.25,269.89-8.89,53.83-16.7,115.59,6.24,167.94,9.08,20.73,25.47,41.74,52.48,51.71,45.94,17,92.56,4.22,132.59-15.63,16.7-8.28,33.65-18.56,53-23a43.27,43.27,0,0,1,26,2.21c9.28,3.88,14.87,11.44,17.88,18.86l.83,2.13a46.69,46.69,0,0,1,3.37,15.78c1.92,41.45-14.43,85.08-29.65,124.62-30.89,80.27-72.67,158.74-123.73,233-39.53,57.5-84.63,113.25-143.29,161-35.92,29.23-88.06,61-143.62,62.2-33.89.74-68.19-11.06-92.11-28.68-70.2-51.74-83.13-134.91-84.06-205.06,2.15-70.16,17.06-139.25,33.58-208.18l38.29-140.14c20.34-70.53,43.7-141.72,54.65-213.49,2.81-18.41,8.36-43.43.64-61.12l-1-2c-2.78-6.06-6.91-12.36-14.75-15.62-7.09-3-17.07-2.54-24.44-.41-23.23,6.71-42.09,32.45-53.18,48-19.78,27.78-34.86,57.21-49.63,86.64l-70.3,157.71-55.45,130.89-89.73,193.6c-33.85,64.54-71,130.5-124.83,187.27-24.14,25.43-54.77,51.59-93.9,64.06-23.86,7.61-51.86,8.87-76,.88-42.29-14-64.2-50.24-76.11-81.66-21.14-55.73-22.07-117.7-16.06-175.14,13-124.48,52.85-248.09,89.16-369.67,16.69-55.88,36.28-112.47,45.86-169.33,3.09-18.36,6.24-38.57-3.32-56.2-3.94-7.28-9.82-14.64-20-17.63-6.29-1.83-15-1.78-21.17.37C766,609.39,580.36,1077.14,541.43,1170.67L442.48,1407.2l-396.83,0L450.44,638H0L225.58,42.77C304.57,19.58,388.61,6.77,472.91,1.29Z"/></svg>