<svg id="Layer_1" data-name="Layer 1" xmlns="http://www.w3.org/2000/svg" viewBox="0 0 3206.32 3206.32"><defs><style>.cls-1{fill:#fefefe;}</style></defs><rect width="3206.32" height="3206.32" rx="971.01"/><path class="cls-1" d="M1019.8,809.44c42.09-2.44,89.13-3.59,126,14.23,47.19,22.79,66.61,64.17,72.41,104.15,4,27.54.57,56.1-3.85,83.52l-25.05,112.4-77,257.08-17.31,66.65c-3.22,15.29-7,34-1.81,49.24,2.34,7,8.41,16,18,18.75,5.43,1.55,14.4.67,19.75-.74,20.27-5.32,38.52-29.51,48.45-42.9,36.72-49.48,63.43-105.07,90.16-158l94.5-182.77c29.39-53.77,60.88-107.75,98.54-158.58,45.15-60.93,110.29-141.23,205.37-161,28.3-5.88,62.26-4.79,87.81,6.6,62.65,27.92,73,100.51,73.81,149.74,1.18,70.76-19.1,143.93-37.22,213.08l-110.14,372.24-25.77,102.4c-5.78,29.44-11.89,59.66-.51,88.82a37.82,37.82,0,0,0,22.53,22.31,39.42,39.42,0,0,0,23.72,1.43c26.7-7.08,47.57-39.65,59.27-57.12,44.18-66,75-138.93,106.75-208.73L1994,1229.62c36.51-75.1,75.71-150,122.75-221.77,42.19-64.36,116.73-171.15,212.41-194.77,30.11-7.43,64.59-6.9,93,4.15,86.27,33.52,93,136.1,87,199.19-6.6,69.44-27.76,139.55-47.78,207.42-28.91,98-60.58,196.3-77.06,296.05-9.75,59-18.32,126.8,6.85,184.22,10,22.74,27.94,45.79,57.57,56.72,50.39,18.61,101.53,4.63,145.44-17.14,18.32-9.09,36.91-20.36,58.18-25.29a47.48,47.48,0,0,1,28.48,2.43c10.18,4.25,16.32,12.55,19.62,20.68l.91,2.34a51.24,51.24,0,0,1,3.69,17.31c2.11,45.47-15.82,93.33-32.52,136.7-33.88,88.05-79.71,174.13-135.72,255.57-43.36,63.08-92.83,124.23-157.18,176.61-39.4,32.06-96.6,66.89-157.54,68.23-37.18.81-74.8-12.14-101-31.46-77-56.76-91.19-148-92.21-224.94,2.36-77,18.72-152.75,36.84-228.36l42-153.72c22.31-77.37,47.93-155.46,59.95-234.18,3.08-20.2,9.17-47.64.7-67l-1.07-2.22c-3-6.65-7.58-13.56-16.18-17.14-7.77-3.25-18.72-2.78-26.8-.45-25.49,7.36-46.17,35.6-58.34,52.68-21.7,30.47-38.24,62.75-54.44,95l-77.11,173L1873.61,1903l-98.43,212.36c-37.13,70.8-77.82,143.15-136.92,205.42-26.48,27.9-60.08,56.59-103,70.27-26.17,8.35-56.88,9.73-83.32,1-46.39-15.37-70.42-55.11-83.49-89.58-23.18-61.13-24.2-129.11-17.61-192.11,14.29-136.55,58-272.14,97.8-405.5,18.31-61.3,39.8-123.38,50.3-185.75,3.39-20.14,6.85-42.31-3.64-61.64-4.32-8-10.77-16.06-22-19.34-6.9-2-16.45-2-23.22.4-108.83,37.93-312.42,551-355.12,653.62L986.42,2351.61l-435.3,0,444-843.77H501L748.49,854.93C835.14,829.5,927.33,815.44,1019.8,809.44Z"/></svg>