<svg xmlns="http://www.w3.org/2000/svg" version="1.1" xmlns:xlink="http://www.w3.org/1999/xlink" width="20" height="20" x="0" y="0" viewBox="0 0 511.866 511.866" style="enable-background:new 0 0 512 512" xml:space="preserve"><g><path fill="#e79098" d="M476.2 187.043a9.535 9.535 0 0 1 9.535 9.535V463.73c0 21.781-17.657 39.438-39.438 39.438H67.613c-21.781 0-39.438-17.657-39.438-39.438V196.578a9.535 9.535 0 0 1 9.535-9.535z" opacity="1" data-original="#e79098"></path><path fill="#e17983" d="M57.085 187.043v269.553c0 17.841 14.51 32.355 32.345 32.355h336.072c17.835 0 32.345-14.514 32.345-32.355V187.043z" opacity="1" data-original="#e17983"></path><path fill="#f9f7f7" d="M429.32 167.775H85.611c-4.482 0-8.107 3.635-8.107 8.117v243.886l110.762 40.457 69.199 7.959 165.853-29.939 14.108-18.477V175.892c.001-4.482-3.624-8.117-8.106-8.117z" opacity="1" data-original="#f9f7f7"></path><path fill="#f8f3f2" d="M120.012 428.382V167.775H85.611c-4.482 0-8.107 3.635-8.107 8.117v243.886l43.887 16.03a20.871 20.871 0 0 1-1.379-7.426z" opacity="1" data-original="#f8f3f2"></path><g fill="#f2eae7"><path d="M257.466 468.194v.337H89.43c-6.585 0-11.925-5.34-11.925-11.935v-36.817H209.05c26.74-.001 48.416 21.675 48.416 48.415zM437.427 419.778v36.817c0 6.596-5.34 11.935-11.925 11.935H257.466v-.337c0-26.74 21.676-48.416 48.416-48.416h131.545z" fill="#f2eae7" opacity="1" data-original="#f2eae7"></path></g><path fill="#ede2dd" d="M261.279 449.329a48.261 48.261 0 0 0-3.813 18.865v.337h168.036c6.585 0 11.925-5.34 11.925-11.935v-7.266H261.279z" opacity="1" data-original="#ede2dd"></path><path fill="#ede2dd" d="M140.959 449.329c-11.569 0-20.947-9.378-20.947-20.947v-8.604H77.505v36.817c0 6.596 5.34 11.935 11.925 11.935h168.036v-.337a48.268 48.268 0 0 0-3.813-18.865H140.959z" opacity="1" data-original="#ede2dd"></path><path fill="#a59ca6" d="M278.962 331.501h-48.057c-18.126 0-32.821-14.694-32.821-32.821v-36.63c0-5.598 4.538-10.136 10.136-10.136h93.426c5.598 0 10.136 4.538 10.136 10.136v36.63c0 18.127-14.694 32.821-32.82 32.821z" opacity="1" data-original="#a59ca6"></path><path fill="#8f8390" d="M301.798 315.246h-48.057c-18.126 0-32.821-14.694-32.821-32.82v-30.511h-12.7c-5.598 0-10.136 4.538-10.136 10.136v36.63c0 18.126 14.694 32.821 32.821 32.821h48.057c12.297 0 23.007-6.767 28.629-16.775a33.02 33.02 0 0 1-5.793.519z" opacity="1" data-original="#8f8390"></path><path fill="#fbe88c" d="m261.259 11.122 22.747 46.09a6.495 6.495 0 0 0 4.892 3.554l50.864 7.391c5.329.774 7.457 7.324 3.601 11.082l-36.805 35.876a6.5 6.5 0 0 0-1.869 5.751l8.689 50.658c.91 5.308-4.661 9.355-9.427 6.849l-45.494-23.918a6.498 6.498 0 0 0-6.047 0l-45.494 23.918c-4.767 2.506-10.338-1.542-9.427-6.849l8.689-50.658a6.497 6.497 0 0 0-1.869-5.751L167.503 79.24c-3.856-3.759-1.728-10.308 3.601-11.082l50.864-7.391a6.5 6.5 0 0 0 4.892-3.554l22.747-46.09c2.383-4.83 9.269-4.83 11.652-.001z" opacity="1" data-original="#fbe88c"></path><path fill="#fbe372" d="m313.378 171.525-1.326-7.734-51.542-27.097a7.638 7.638 0 0 0-7.109 0L225.7 151.258c-2.713 1.426-5.884-.877-5.366-3.898l6.492-37.853a6.497 6.497 0 0 0-1.869-5.751l-17.965-17.511c-3.368-3.283-1.509-9.002 3.145-9.678l29.324-4.261a6.5 6.5 0 0 0 4.892-3.554l22.673-45.941-5.768-11.688c-2.383-4.829-9.27-4.829-11.653 0l-22.747 46.09a6.496 6.496 0 0 1-4.892 3.554l-50.864 7.391c-5.329.774-7.457 7.323-3.601 11.083l36.805 35.876a6.499 6.499 0 0 1 1.869 5.751l-8.688 50.658c-.91 5.308 4.661 9.356 9.428 6.85l45.494-23.917a6.498 6.498 0 0 1 6.047 0l45.494 23.918c4.767 2.503 10.338-1.544 9.428-6.852z" opacity="1" data-original="#fbe372"></path><g fill="#b8de9c"><path d="M272.826 228.334h-17.893v-12.001c0-11.706 9.49-21.195 21.195-21.195h13.25a4.643 4.643 0 0 1 4.643 4.643v7.358c.001 11.706-9.489 21.195-21.195 21.195zM237.04 228.334h17.893v-12.001c0-11.706-9.489-21.195-21.195-21.195h-13.25a4.643 4.643 0 0 0-4.643 4.643v7.358c-.001 11.706 9.489 21.195 21.195 21.195z" fill="#b8de9c" opacity="1" data-original="#b8de9c"></path></g><path d="M475.668 180.034h-31.355v-3.676c0-8.62-7.013-15.633-15.633-15.633h-61.496c-4.143 0-7.5 3.357-7.5 7.5s3.357 7.5 7.5 7.5h61.496c.349 0 .633.284.633.633v134.823c0 4.143 3.357 7.5 7.5 7.5s7.5-3.357 7.5-7.5V195.034h31.355c1.134 0 2.056.922 2.056 2.056v267.75c0 17.659-14.366 32.026-32.025 32.026H66.167c-17.659 0-32.025-14.367-32.025-32.026V197.09c0-1.134.922-2.056 2.056-2.056h32.379v262.66c0 10.727 8.727 19.453 19.452 19.453H424.86c10.727 0 19.453-8.727 19.453-19.453v-114.55c0-4.143-3.357-7.5-7.5-7.5s-7.5 3.357-7.5 7.5v70.142H304.969c-16.188 0-30.787 6.91-41.024 17.925v-92.21h15.017c22.233 0 40.321-18.088 40.321-40.32v-36.63c0-9.725-7.912-17.637-17.637-17.637h-39.213v-8.58h10.394c15.822 0 28.695-12.873 28.695-28.695v-7.358c0-6.695-5.447-12.143-12.144-12.143h-13.25a28.52 28.52 0 0 0-13.695 3.485v-26.102l38.027 19.992a14.01 14.01 0 0 0 6.527 1.623c2.89 0 5.761-.906 8.215-2.689 4.342-3.154 6.475-8.4 5.566-13.689l-8.599-50.138 36.427-35.509c3.844-3.746 5.201-9.244 3.543-14.349s-5.988-8.755-11.3-9.526l-50.342-7.314-22.511-45.618C265.611 2.99 260.8 0 255.433 0s-10.178 2.99-12.552 7.803l-22.514 45.618-9.422 1.368c-4.099.595-6.939 4.4-6.344 8.5s4.415 6.95 8.5 6.344l9.945-1.444a13.992 13.992 0 0 0 10.538-7.657l21.848-44.268 21.848 44.267a13.993 13.993 0 0 0 10.539 7.658l48.853 7.099-35.349 34.458a13.99 13.99 0 0 0-4.026 12.39l8.345 48.655-43.695-22.972a13.99 13.99 0 0 0-13.027 0l-43.695 22.972 8.346-48.656a13.998 13.998 0 0 0-4.026-12.388l-35.35-34.459 7.186-1.044c4.099-.595 6.939-4.4 6.344-8.5s-4.405-6.942-8.5-6.344l-9.197 1.336c-5.312.771-9.642 4.422-11.3 9.526s-.301 10.603 3.542 14.348l36.428 35.51-8.599 50.137c-.908 5.29 1.225 10.536 5.566 13.69 4.342 3.155 9.99 3.562 14.742 1.066l37.027-19.466v25.577a28.51 28.51 0 0 0-13.695-3.485h-13.25c-6.696 0-12.144 5.447-12.144 12.143v7.358c0 15.822 12.873 28.695 28.695 28.695h10.394v8.58H208.22c-9.725 0-17.637 7.912-17.637 17.637v36.63c0 22.232 18.088 40.32 40.321 40.32h18.04v92.21c-10.237-11.016-24.836-17.925-41.024-17.925h-50.588c-4.143 0-7.5 3.357-7.5 7.5s3.357 7.5 7.5 7.5h50.588c20.177 0 36.986 14.646 40.385 33.861H88.029a4.458 4.458 0 0 1-4.452-4.453v-29.408h41.794c4.143 0 7.5-3.357 7.5-7.5s-3.357-7.5-7.5-7.5H83.577V176.358c0-.349.283-.633.632-.633h61.497c4.143 0 7.5-3.357 7.5-7.5s-3.357-7.5-7.5-7.5H84.208c-8.619 0-15.632 7.013-15.632 15.633v3.676H36.198c-9.404 0-17.056 7.651-17.056 17.056v267.75c0 25.931 21.096 47.026 47.025 47.026h379.531c25.93 0 47.025-21.096 47.025-47.026V197.09c.001-9.404-7.65-17.056-17.055-17.056zM304.969 428.286h124.344v29.408a4.459 4.459 0 0 1-4.453 4.453H264.584c3.399-19.215 20.208-33.861 40.385-33.861zm-42.536-211.953c0-7.552 6.144-13.695 13.695-13.695h10.394v4.501c0 7.552-6.144 13.695-13.695 13.695h-10.394zm-25.393 4.501c-7.552 0-13.695-6.144-13.695-13.695v-4.501h10.394c7.552 0 13.695 6.144 13.695 13.695v4.501zm-6.135 103.167c-13.962 0-25.321-11.358-25.321-25.32v-36.63a2.64 2.64 0 0 1 2.637-2.637h93.426a2.64 2.64 0 0 1 2.637 2.637v36.63c0 13.962-11.359 25.32-25.321 25.32zM384.694 47.138a7.483 7.483 0 0 0 5.469-2.365l16.851-17.938a7.5 7.5 0 1 0-10.934-10.27l-16.851 17.938a7.5 7.5 0 0 0 5.465 12.635z" fill="#000000" opacity="1" data-original="#000000"></path><path d="M385.621 93.317c0 4.143 3.357 7.5 7.5 7.5h17.666c4.143 0 7.5-3.357 7.5-7.5s-3.357-7.5-7.5-7.5h-17.666a7.5 7.5 0 0 0-7.5 7.5zM120.704 44.772a7.483 7.483 0 0 0 5.469 2.365 7.5 7.5 0 0 0 5.465-12.635l-16.851-17.938a7.502 7.502 0 0 0-10.934 10.27zM100.08 100.817h17.666c4.143 0 7.5-3.357 7.5-7.5s-3.357-7.5-7.5-7.5H100.08c-4.143 0-7.5 3.357-7.5 7.5s3.357 7.5 7.5 7.5zM407.403 249.237h-58.828c-4.143 0-7.5 3.357-7.5 7.5s3.357 7.5 7.5 7.5h58.828c4.143 0 7.5-3.357 7.5-7.5s-3.358-7.5-7.5-7.5zM407.403 287.266h-58.828c-4.143 0-7.5 3.357-7.5 7.5s3.357 7.5 7.5 7.5h58.828c4.143 0 7.5-3.357 7.5-7.5s-3.358-7.5-7.5-7.5zM407.403 325.294h-71.729c-4.143 0-7.5 3.357-7.5 7.5s3.357 7.5 7.5 7.5h71.729c4.143 0 7.5-3.357 7.5-7.5s-3.358-7.5-7.5-7.5zM407.403 363.321H303.68c-4.143 0-7.5 3.357-7.5 7.5s3.357 7.5 7.5 7.5h103.723c4.143 0 7.5-3.357 7.5-7.5s-3.358-7.5-7.5-7.5zM164.315 249.237h-58.828c-4.143 0-7.5 3.357-7.5 7.5s3.357 7.5 7.5 7.5h58.828c4.143 0 7.5-3.357 7.5-7.5s-3.357-7.5-7.5-7.5zM105.487 302.266h58.828c4.143 0 7.5-3.357 7.5-7.5s-3.357-7.5-7.5-7.5h-58.828c-4.143 0-7.5 3.357-7.5 7.5s3.357 7.5 7.5 7.5zM177.215 325.294h-71.729c-4.143 0-7.5 3.357-7.5 7.5s3.357 7.5 7.5 7.5h71.729c4.143 0 7.5-3.357 7.5-7.5s-3.357-7.5-7.5-7.5zM97.987 370.821c0 4.143 3.357 7.5 7.5 7.5H209.21c4.143 0 7.5-3.357 7.5-7.5s-3.357-7.5-7.5-7.5H105.487a7.5 7.5 0 0 0-7.5 7.5z" fill="#000000" opacity="1" data-original="#000000"></path></g></svg>